<?xml version="1.0" standalone="no"?>
<!DOCTYPE svg PUBLIC "-//W3C//DTD SVG 20010904//EN"
 "http://www.w3.org/TR/2001/REC-SVG-20010904/DTD/svg10.dtd">
<svg version="1.0" xmlns="http://www.w3.org/2000/svg"
 width="250.000000pt" height="250.000000pt" viewBox="0 0 250.000000 250.000000"
 preserveAspectRatio="xMidYMid meet">
<metadata>
Created by potrace 1.14, written by Peter Selinger 2001-2017
</metadata>
<g transform="translate(0.000000,250.000000) scale(0.100000,-0.100000)"
fill="#000000" stroke="none">
<path d="M1285 1862 c-51 -6 -133 -24 -160 -34 -112 -42 -237 -144 -305 -251
-32 -51 -38 -55 -82 -61 -35 -5 -58 -16 -88 -44 -23 -20 -49 -38 -58 -39 -95
-11 -191 -34 -202 -48 -10 -12 -7 -16 13 -24 35 -14 116 -22 228 -24 l95 -1 1
-92 c1 -223 121 -423 320 -535 77 -44 145 -60 263 -66 130 -6 203 8 299 57
l56 28 251 4 c140 3 258 9 268 15 17 9 15 13 -15 36 -19 14 -77 40 -129 57
-52 17 -109 38 -127 46 -17 8 -39 14 -48 14 -9 0 -15 3 -13 8 78 155 99 224
99 337 0 102 -21 190 -67 285 -68 137 -229 271 -374 310 -47 13 -191 27 -225
22z"/>
</g>
</svg>
